# xmcd
#
# Track frame offsets: 
#        150
#        22443
#        39959
#        58876
#        77083
#        91977
#        111029
#        130248
#        149094
#        166861
#        183828
#        202227
#        223264
#        238470
#        252327
#        266209
#        281885
#        303791
#        320996
#
# Disc length: 4476 seconds
#
# Revision: 0
# Processed by: cddbd v1.5.2PL0 Copyright (c) Steve Scherf et al.
# Submitted via: ExactAudioCopy v1.3
#
DISCID=35117a13
DTITLE=Neville Dickie - Stridin' The Blues Away
DYEAR=2008
DGENRE=Blues
TTITLE0=Wolverine Blues
TTITLE1=Blue Hoosier Blues
TTITLE2=Lonesome Mama Blues
TTITLE3=The Jazz Me Blues
TTITLE4=If Someone Would Only Love Me
TTITLE5=St. Louis Blues
TTITLE6=Alpine Blues
TTITLE7=Limehouse Blues
TTITLE8=Satanic Blues
TTITLE9=I ain't got nobody
TTITLE10=Virginia Blues
TTITLE11=Singin The Blues
TTITLE12=Blame It On The Blues
TTITLE13=Chinese Blues
TTITLE14=Staff Caff Blues
TTITLE15=The Shimmee Blues
TTITLE16=Wabash Blues
TTITLE17=Buddy Boldens Blues
TTITLE18=Wildcat Blues
EXTD=
EXTT0=
EXTT1=
EXTT2=
EXTT3=
EXTT4=
EXTT5=
EXTT6=
EXTT7=
EXTT8=
EXTT9=
EXTT10=
EXTT11=
EXTT12=
EXTT13=
EXTT14=
EXTT15=
EXTT16=
EXTT17=
EXTT18=
PLAYORDER=
